<?xml version="1.0" encoding="utf-8" standalone="no"?>
<!DOCTYPE svg PUBLIC "-//W3C//DTD SVG 1.1//EN"
  "http://www.w3.org/Graphics/SVG/1.1/DTD/svg11.dtd">
<svg xmlns:xlink="http://www.w3.org/1999/xlink" width="460.8pt" height="345.6pt" viewBox="0 0 460.8 345.6" xmlns="http://www.w3.org/2000/svg" version="1.1">
 <metadata>
  <rdf:RDF xmlns:dc="http://purl.org/dc/elements/1.1/" xmlns:cc="http://creativecommons.org/ns#" xmlns:rdf="http://www.w3.org/1999/02/22-rdf-syntax-ns#">
   <cc:Work>
    <dc:type rdf:resource="http://purl.org/dc/dcmitype/StillImage"/>
    <dc:date>2025-05-27T21:59:40.983434</dc:date>
    <dc:format>image/svg+xml</dc:format>
    <dc:creator>
     <cc:Agent>
      <dc:title>Matplotlib v3.10.1, https://matplotlib.org/</dc:title>
     </cc:Agent>
    </dc:creator>
   </cc:Work>
  </rdf:RDF>
 </metadata>
 <defs>
  <style type="text/css">*{stroke-linejoin: round; stroke-linecap: butt}</style>
 </defs>
 <g id="figure_1">
  <g id="patch_1">
   <path d="M 0 345.6 
L 460.8 345.6 
L 460.8 0 
L 0 0 
z
" style="fill: #ffffff"/>
  </g>
  <g id="axes_1">
   <g id="patch_2">
    <path d="M 46.94375 260.791809 
L 450 260.791809 
L 450 10.8 
L 46.94375 10.8 
z
" style="fill: #ffffff"/>
   </g>
   <g id="patch_3">
    <path d="M 65.264489 260.791809 
L 88.165412 260.791809 
L 88.165412 87.099988 
L 65.264489 87.099988 
z
" clip-path="url(#p4c69c58911)" style="fill: #1f77b4"/>
   </g>
   <g id="patch_4">
    <path d="M 93.890643 260.791809 
L 116.791566 260.791809 
L 116.791566 97.195846 
L 93.890643 97.195846 
z
" clip-path="url(#p4c69c58911)" style="fill: #1f77b4"/>
   </g>
   <g id="patch_5">
    <path d="M 122.516797 260.791809 
L 145.41772 260.791809 
L 145.41772 118.12627 
L 122.516797 118.12627 
z
" clip-path="url(#p4c69c58911)" style="fill: #1f77b4"/>
   </g>
   <g id="patch_6">
    <path d="M 151.142951 260.791809 
L 174.043874 260.791809 
L 174.043874 36.008631 
L 151.142951 36.008631 
z
" clip-path="url(#p4c69c58911)" style="fill: #1f77b4"/>
   </g>
   <g id="patch_7">
    <path d="M 179.769105 260.791809 
L 202.670028 260.791809 
L 202.670028 22.704372 
L 179.769105 22.704372 
z
" clip-path="url(#p4c69c58911)" style="fill: #1f77b4"/>
   </g>
   <g id="patch_8">
    <path d="M 208.395259 260.791809 
L 231.296183 260.791809 
L 231.296183 118.350353 
L 208.395259 118.350353 
z
" clip-path="url(#p4c69c58911)" style="fill: #1f77b4"/>
   </g>
   <g id="patch_9">
    <path d="M 237.021413 260.791809 
L 259.922337 260.791809 
L 259.922337 78.560859 
L 237.021413 78.560859 
z
" clip-path="url(#p4c69c58911)" style="fill: #1f77b4"/>
   </g>
   <g id="patch_10">
    <path d="M 265.647567 260.791809 
L 288.548491 260.791809 
L 288.548491 122.727286 
L 265.647567 122.727286 
z
" clip-path="url(#p4c69c58911)" style="fill: #1f77b4"/>
   </g>
   <g id="patch_11">
    <path d="M 294.273722 260.791809 
L 317.174645 260.791809 
L 317.174645 143.083525 
L 294.273722 143.083525 
z
" clip-path="url(#p4c69c58911)" style="fill: #1f77b4"/>
   </g>
   <g id="patch_12">
    <path d="M 322.899876 260.791809 
L 345.800799 260.791809 
L 345.800799 68.016137 
L 322.899876 68.016137 
z
" clip-path="url(#p4c69c58911)" style="fill: #1f77b4"/>
   </g>
   <g id="patch_13">
    <path d="M 351.52603 260.791809 
L 374.426953 260.791809 
L 374.426953 110.928967 
L 351.52603 110.928967 
z
" clip-path="url(#p4c69c58911)" style="fill: #1f77b4"/>
   </g>
   <g id="patch_14">
    <path d="M 380.152184 260.791809 
L 403.053107 260.791809 
L 403.053107 135.661575 
L 380.152184 135.661575 
z
" clip-path="url(#p4c69c58911)" style="fill: #1f77b4"/>
   </g>
   <g id="patch_15">
    <path d="M 408.778338 260.791809 
L 431.679261 260.791809 
L 431.679261 131.72112 
L 408.778338 131.72112 
z
" clip-path="url(#p4c69c58911)" style="fill: #1f77b4"/>
   </g>
   <g id="matplotlib.axis_1">
    <g id="xtick_1">
     <g id="line2d_1">
      <defs>
       <path id="m9afc782356" d="M 0 0 
L 0 3.5 
" style="stroke: #000000; stroke-width: 0.8"/>
      </defs>
      <g>
       <use xlink:href="#m9afc782356" x="76.71495" y="260.791809" style="stroke: #000000; stroke-width: 0.8"/>
      </g>
     </g>
     <g id="text_1">
      <!-- arxiv -->
      <g transform="translate(59.963149 288.291276) rotate(-45) scale(0.1 -0.1)">
       <defs>
        <path id="PingFangHK-Regular-61" d="M 1837 3398 
C 1440 3398 1126 3322 883 3168 
C 614 3002 442 2739 371 2394 
L 877 2355 
C 928 2566 1037 2726 1210 2829 
C 1363 2931 1562 2976 1805 2976 
C 2381 2976 2669 2701 2669 2144 
L 2669 1971 
L 1875 1958 
C 1376 1952 992 1856 723 1677 
C 416 1485 269 1203 269 826 
C 269 557 371 333 576 160 
C 774 -6 1037 -90 1370 -90 
C 1677 -90 1952 -19 2195 115 
C 2400 230 2573 378 2701 557 
L 2701 0 
L 3181 0 
L 3181 2125 
C 3181 2509 3078 2810 2886 3027 
C 2656 3277 2310 3398 1837 3398 
z
M 2669 1587 
L 2669 1306 
C 2669 1050 2547 819 2310 621 
C 2067 416 1792 314 1478 314 
C 1274 314 1107 365 979 461 
C 851 563 794 685 794 838 
C 794 1318 1165 1562 1907 1574 
L 2669 1587 
z
" transform="scale(0.015625)"/>
        <path id="PingFangHK-Regular-72" d="M 1850 3398 
C 1619 3398 1421 3328 1248 3187 
C 1107 3078 992 2925 902 2733 
L 902 3309 
L 397 3309 
L 397 0 
L 902 0 
L 902 1754 
C 902 2061 986 2323 1165 2541 
C 1338 2771 1555 2880 1811 2880 
C 1971 2880 2138 2861 2304 2810 
L 2304 3322 
C 2182 3373 2029 3398 1850 3398 
z
" transform="scale(0.015625)"/>
        <path id="PingFangHK-Regular-78" d="M 173 3309 
L 1344 1754 
L 32 0 
L 640 0 
L 1632 1376 
L 2618 0 
L 3226 0 
L 1914 1754 
L 3085 3309 
L 2483 3309 
L 1632 2131 
L 774 3309 
L 173 3309 
z
" transform="scale(0.015625)"/>
        <path id="PingFangHK-Regular-69" d="M 819 4557 
C 710 4557 621 4525 544 4448 
C 467 4384 435 4294 435 4179 
C 435 4070 467 3981 544 3904 
C 621 3834 710 3795 819 3795 
C 928 3795 1018 3834 1094 3904 
C 1171 3981 1210 4070 1210 4179 
C 1210 4294 1171 4384 1094 4448 
C 1018 4525 928 4557 819 4557 
z
M 563 3309 
L 563 0 
L 1075 0 
L 1075 3309 
L 563 3309 
z
" transform="scale(0.015625)"/>
        <path id="PingFangHK-Regular-76" d="M 32 3309 
L 1280 0 
L 1798 0 
L 3053 3309 
L 2490 3309 
L 1542 640 
L 595 3309 
L 32 3309 
z
" transform="scale(0.015625)"/>
       </defs>
       <use xlink:href="#PingFangHK-Regular-61"/>
       <use xlink:href="#PingFangHK-Regular-72" transform="translate(55.899994 0)"/>
       <use xlink:href="#PingFangHK-Regular-78" transform="translate(92.399979 0)"/>
       <use xlink:href="#PingFangHK-Regular-69" transform="translate(143.299973 0)"/>
       <use xlink:href="#PingFangHK-Regular-76" transform="translate(168.899963 0)"/>
      </g>
     </g>
    </g>
    <g id="xtick_2">
     <g id="line2d_2">
      <g>
       <use xlink:href="#m9afc782356" x="105.341104" y="260.791809" style="stroke: #000000; stroke-width: 0.8"/>
      </g>
     </g>
     <g id="text_2">
      <!-- collab -->
      <g transform="translate(84.510181 292.370398) rotate(-45) scale(0.1 -0.1)">
       <defs>
        <path id="PingFangHK-Regular-63" d="M 1824 3398 
C 1331 3398 941 3226 659 2874 
C 397 2554 269 2144 269 1638 
C 269 1133 397 723 659 410 
C 934 77 1318 -90 1818 -90 
C 2227 -90 2554 19 2803 230 
C 3059 448 3219 774 3296 1197 
L 2784 1197 
C 2707 627 2381 339 1818 339 
C 1485 339 1229 461 1056 691 
C 877 922 794 1242 794 1645 
C 794 2048 883 2368 1062 2605 
C 1248 2848 1504 2970 1824 2970 
C 2086 2970 2298 2912 2464 2784 
C 2624 2656 2726 2464 2771 2208 
L 3277 2208 
C 3219 2611 3066 2912 2810 3110 
C 2560 3302 2234 3398 1824 3398 
z
" transform="scale(0.015625)"/>
        <path id="PingFangHK-Regular-6f" d="M 1875 3398 
C 1376 3398 986 3232 691 2886 
C 410 2560 269 2150 269 1651 
C 269 1158 410 749 691 429 
C 986 83 1376 -90 1875 -90 
C 2368 -90 2765 83 3066 429 
C 3341 749 3482 1158 3482 1651 
C 3482 2150 3341 2560 3059 2886 
C 2765 3232 2368 3398 1875 3398 
z
M 1875 2970 
C 2221 2970 2496 2835 2701 2566 
C 2874 2323 2963 2022 2963 1651 
C 2963 1293 2874 986 2701 742 
C 2496 474 2221 339 1875 339 
C 1523 339 1248 474 1056 742 
C 877 986 794 1286 794 1651 
C 794 2022 877 2323 1056 2566 
C 1248 2835 1523 2970 1875 2970 
z
" transform="scale(0.015625)"/>
        <path id="PingFangHK-Regular-6c" d="M 499 4659 
L 499 0 
L 1005 0 
L 1005 4659 
L 499 4659 
z
" transform="scale(0.015625)"/>
        <path id="PingFangHK-Regular-62" d="M 397 4659 
L 397 0 
L 877 0 
L 877 544 
C 1101 122 1466 -90 1978 -90 
C 2458 -90 2835 90 3110 435 
C 3354 755 3482 1165 3482 1664 
C 3482 2150 3354 2547 3110 2867 
C 2842 3226 2470 3398 2003 3398 
C 1530 3398 1165 3168 909 2701 
L 909 4659 
L 397 4659 
z
M 1894 2976 
C 2253 2976 2522 2848 2707 2592 
C 2874 2368 2957 2061 2957 1664 
C 2957 1267 2874 954 2720 723 
C 2541 467 2272 333 1914 333 
C 1581 333 1318 461 1139 717 
C 973 947 890 1248 890 1619 
L 890 1683 
C 890 2067 979 2381 1171 2618 
C 1350 2861 1594 2976 1894 2976 
z
" transform="scale(0.015625)"/>
       </defs>
       <use xlink:href="#PingFangHK-Regular-63"/>
       <use xlink:href="#PingFangHK-Regular-6f" transform="translate(54.699997 0)"/>
       <use xlink:href="#PingFangHK-Regular-6c" transform="translate(113.299988 0)"/>
       <use xlink:href="#PingFangHK-Regular-6c" transform="translate(136.799973 0)"/>
       <use xlink:href="#PingFangHK-Regular-61" transform="translate(160.299957 0)"/>
       <use xlink:href="#PingFangHK-Regular-62" transform="translate(216.199951 0)"/>
      </g>
     </g>
    </g>
    <g id="xtick_3">
     <g id="line2d_3">
      <g>
       <use xlink:href="#m9afc782356" x="133.967259" y="260.791809" style="stroke: #000000; stroke-width: 0.8"/>
      </g>
     </g>
     <g id="text_3">
      <!-- citation -->
      <g transform="translate(108.009811 297.496922) rotate(-45) scale(0.1 -0.1)">
       <defs>
        <path id="PingFangHK-Regular-74" d="M 1280 4378 
L 774 4166 
L 774 3309 
L 109 3309 
L 109 2880 
L 774 2880 
L 774 774 
C 774 525 826 339 934 211 
C 1050 70 1248 0 1517 0 
L 2016 0 
L 2016 429 
L 1594 429 
C 1478 429 1395 461 1350 512 
C 1299 563 1280 653 1280 774 
L 1280 2880 
L 2099 2880 
L 2099 3309 
L 1280 3309 
L 1280 4378 
z
" transform="scale(0.015625)"/>
        <path id="PingFangHK-Regular-6e" d="M 1946 3398 
C 1728 3398 1530 3347 1350 3245 
C 1171 3149 1024 3008 909 2822 
L 909 3309 
L 397 3309 
L 397 0 
L 909 0 
L 909 1997 
C 928 2298 1024 2534 1203 2714 
C 1370 2880 1568 2963 1798 2963 
C 2374 2963 2669 2643 2669 1997 
L 2669 0 
L 3181 0 
L 3181 2035 
C 3181 2944 2765 3398 1946 3398 
z
" transform="scale(0.015625)"/>
       </defs>
       <use xlink:href="#PingFangHK-Regular-63"/>
       <use xlink:href="#PingFangHK-Regular-69" transform="translate(54.699997 0)"/>
       <use xlink:href="#PingFangHK-Regular-74" transform="translate(80.299988 0)"/>
       <use xlink:href="#PingFangHK-Regular-61" transform="translate(115.799973 0)"/>
       <use xlink:href="#PingFangHK-Regular-74" transform="translate(171.699966 0)"/>
       <use xlink:href="#PingFangHK-Regular-69" transform="translate(207.199951 0)"/>
       <use xlink:href="#PingFangHK-Regular-6f" transform="translate(232.799942 0)"/>
       <use xlink:href="#PingFangHK-Regular-6e" transform="translate(291.399933 0)"/>
      </g>
     </g>
    </g>
    <g id="xtick_4">
     <g id="line2d_4">
      <g>
       <use xlink:href="#m9afc782356" x="162.593413" y="260.791809" style="stroke: #000000; stroke-width: 0.8"/>
      </g>
     </g>
     <g id="text_4">
      <!-- ddi -->
      <g transform="translate(151.097403 283.035484) rotate(-45) scale(0.1 -0.1)">
       <defs>
        <path id="PingFangHK-Regular-64" d="M 2842 4659 
L 2842 2701 
C 2586 3168 2221 3398 1747 3398 
C 1274 3398 909 3226 640 2867 
C 390 2547 269 2150 269 1664 
C 269 1165 390 755 640 435 
C 909 90 1286 -90 1773 -90 
C 2272 -90 2643 122 2874 544 
L 2874 0 
L 3354 0 
L 3354 4659 
L 2842 4659 
z
M 1856 2976 
C 2150 2976 2394 2861 2579 2618 
C 2758 2381 2854 2067 2854 1683 
L 2854 1619 
C 2854 1248 2771 947 2611 717 
C 2426 461 2170 333 1837 333 
C 1478 333 1210 467 1030 723 
C 870 954 794 1267 794 1664 
C 794 2061 870 2368 1037 2592 
C 1216 2848 1491 2976 1856 2976 
z
" transform="scale(0.015625)"/>
       </defs>
       <use xlink:href="#PingFangHK-Regular-64"/>
       <use xlink:href="#PingFangHK-Regular-64" transform="translate(58.599991 0)"/>
       <use xlink:href="#PingFangHK-Regular-69" transform="translate(117.199982 0)"/>
      </g>
     </g>
    </g>
    <g id="xtick_5">
     <g id="line2d_5">
      <g>
       <use xlink:href="#m9afc782356" x="191.219567" y="260.791809" style="stroke: #000000; stroke-width: 0.8"/>
      </g>
     </g>
     <g id="text_5">
      <!-- protein -->
      <g transform="translate(166.754777 296.004264) rotate(-45) scale(0.1 -0.1)">
       <defs>
        <path id="PingFangHK-Regular-70" d="M 1978 3398 
C 1478 3398 1114 3187 877 2765 
L 877 3309 
L 397 3309 
L 397 -1267 
L 909 -1267 
L 909 602 
C 1165 141 1530 -90 2003 -90 
C 2477 -90 2842 90 3110 435 
C 3354 755 3482 1158 3482 1645 
C 3482 2144 3354 2547 3104 2867 
C 2829 3226 2451 3398 1978 3398 
z
M 1914 2976 
C 2266 2976 2534 2848 2720 2579 
C 2874 2349 2957 2035 2957 1645 
C 2957 1248 2874 934 2707 704 
C 2522 461 2253 333 1894 333 
C 1587 333 1350 454 1171 685 
C 979 922 890 1229 890 1613 
L 890 1677 
C 890 2048 973 2355 1139 2586 
C 1318 2848 1581 2976 1914 2976 
z
" transform="scale(0.015625)"/>
        <path id="PingFangHK-Regular-65" d="M 1760 3398 
C 1280 3398 902 3226 621 2880 
C 339 2554 205 2144 205 1658 
C 205 1120 346 698 640 378 
C 922 70 1306 -90 1779 -90 
C 2208 -90 2560 38 2835 282 
C 3059 486 3206 742 3283 1062 
L 2771 1062 
C 2688 832 2579 659 2438 544 
C 2272 410 2048 339 1779 339 
C 1466 339 1216 442 1037 646 
C 858 851 762 1139 736 1510 
L 3347 1510 
C 3334 2086 3206 2541 2963 2861 
C 2694 3219 2291 3398 1760 3398 
z
M 1773 2970 
C 2400 2970 2752 2618 2816 1907 
L 749 1907 
C 781 2234 883 2490 1062 2682 
C 1242 2874 1478 2970 1773 2970 
z
" transform="scale(0.015625)"/>
       </defs>
       <use xlink:href="#PingFangHK-Regular-70"/>
       <use xlink:href="#PingFangHK-Regular-72" transform="translate(58.599991 0)"/>
       <use xlink:href="#PingFangHK-Regular-6f" transform="translate(95.099976 0)"/>
       <use xlink:href="#PingFangHK-Regular-74" transform="translate(153.699966 0)"/>
       <use xlink:href="#PingFangHK-Regular-65" transform="translate(189.199951 0)"/>
       <use xlink:href="#PingFangHK-Regular-69" transform="translate(244.699936 0)"/>
       <use xlink:href="#PingFangHK-Regular-6e" transform="translate(270.299927 0)"/>
      </g>
     </g>
    </g>
    <g id="xtick_6">
     <g id="line2d_6">
      <g>
       <use xlink:href="#m9afc782356" x="219.845721" y="260.791809" style="stroke: #000000; stroke-width: 0.8"/>
      </g>
     </g>
     <g id="text_6">
      <!-- ppa -->
      <g transform="translate(206.206294 285.178901) rotate(-45) scale(0.1 -0.1)">
       <use xlink:href="#PingFangHK-Regular-70"/>
       <use xlink:href="#PingFangHK-Regular-70" transform="translate(58.599991 0)"/>
       <use xlink:href="#PingFangHK-Regular-61" transform="translate(117.199982 0)"/>
      </g>
     </g>
    </g>
    <g id="xtick_7">
     <g id="line2d_7">
      <g>
       <use xlink:href="#m9afc782356" x="248.471875" y="260.791809" style="stroke: #000000; stroke-width: 0.8"/>
      </g>
     </g>
     <g id="text_7">
      <!-- reddit.dgl -->
      <g transform="translate(216.010149 303.901763) rotate(-45) scale(0.1 -0.1)">
       <defs>
        <path id="PingFangHK-Regular-2e" d="M 845 762 
C 730 762 640 723 570 646 
C 493 570 454 480 454 365 
C 454 256 493 166 570 90 
C 640 13 730 -26 845 -26 
C 947 -26 1043 13 1120 90 
C 1197 166 1235 256 1235 365 
C 1235 480 1197 570 1120 646 
C 1043 723 947 762 845 762 
z
" transform="scale(0.015625)"/>
        <path id="PingFangHK-Regular-67" d="M 1760 3398 
C 1299 3398 934 3238 666 2912 
C 397 2605 269 2214 269 1728 
C 269 1248 397 858 666 550 
C 934 237 1299 77 1760 77 
C 2259 77 2630 301 2874 742 
L 2874 160 
C 2874 -570 2541 -941 1875 -941 
C 1574 -941 1350 -883 1203 -774 
C 1056 -672 960 -506 922 -282 
L 410 -282 
C 467 -640 614 -909 851 -1088 
C 1082 -1267 1427 -1357 1875 -1357 
C 2880 -1357 3386 -826 3386 230 
L 3386 3309 
L 2874 3309 
L 2874 2739 
C 2630 3181 2259 3398 1760 3398 
z
M 1837 2976 
C 2163 2976 2419 2861 2611 2618 
C 2790 2400 2880 2099 2880 1728 
C 2880 1370 2790 1075 2611 851 
C 2419 621 2163 506 1830 506 
C 1472 506 1210 634 1030 877 
C 870 1094 794 1382 794 1728 
C 794 2099 883 2400 1062 2618 
C 1248 2861 1504 2976 1837 2976 
z
" transform="scale(0.015625)"/>
       </defs>
       <use xlink:href="#PingFangHK-Regular-72"/>
       <use xlink:href="#PingFangHK-Regular-65" transform="translate(36.499985 0)"/>
       <use xlink:href="#PingFangHK-Regular-64" transform="translate(91.999969 0)"/>
       <use xlink:href="#PingFangHK-Regular-64" transform="translate(150.59996 0)"/>
       <use xlink:href="#PingFangHK-Regular-69" transform="translate(209.199951 0)"/>
       <use xlink:href="#PingFangHK-Regular-74" transform="translate(234.799942 0)"/>
       <use xlink:href="#PingFangHK-Regular-2e" transform="translate(270.299927 0)"/>
       <use xlink:href="#PingFangHK-Regular-64" transform="translate(296.699921 0)"/>
       <use xlink:href="#PingFangHK-Regular-67" transform="translate(355.299911 0)"/>
       <use xlink:href="#PingFangHK-Regular-6c" transform="translate(414.399902 0)"/>
      </g>
     </g>
    </g>
    <g id="xtick_8">
     <g id="line2d_8">
      <g>
       <use xlink:href="#m9afc782356" x="277.098029" y="260.791809" style="stroke: #000000; stroke-width: 0.8"/>
      </g>
     </g>
     <g id="text_8">
      <!-- products -->
      <g transform="translate(246.778616 301.858887) rotate(-45) scale(0.1 -0.1)">
       <defs>
        <path id="PingFangHK-Regular-75" d="M 397 3309 
L 397 1261 
C 397 365 794 -90 1600 -90 
C 2048 -90 2406 115 2675 512 
L 2675 0 
L 3187 0 
L 3187 3309 
L 2675 3309 
L 2675 1293 
C 2637 1011 2528 781 2349 602 
C 2176 435 1978 346 1760 346 
C 1459 346 1242 429 1107 582 
C 973 736 909 973 909 1286 
L 909 3309 
L 397 3309 
z
" transform="scale(0.015625)"/>
        <path id="PingFangHK-Regular-73" d="M 1568 3398 
C 1197 3398 890 3315 659 3149 
C 410 2982 288 2765 288 2483 
C 288 2202 410 1990 666 1837 
C 819 1734 1094 1638 1485 1542 
C 1843 1453 2080 1382 2189 1331 
C 2394 1229 2502 1088 2502 902 
C 2502 531 2202 339 1613 339 
C 1331 339 1120 390 979 493 
C 838 608 742 794 704 1056 
L 205 1056 
C 282 294 755 -90 1626 -90 
C 2560 -90 3027 256 3027 934 
C 3027 1222 2893 1446 2630 1613 
C 2458 1722 2176 1824 1779 1920 
C 1446 2010 1216 2080 1094 2138 
C 902 2234 813 2355 813 2496 
C 813 2643 883 2758 1024 2842 
C 1152 2931 1331 2970 1562 2970 
C 1824 2970 2029 2918 2170 2816 
C 2298 2726 2381 2573 2426 2368 
L 2925 2368 
C 2835 3059 2387 3398 1568 3398 
z
" transform="scale(0.015625)"/>
       </defs>
       <use xlink:href="#PingFangHK-Regular-70"/>
       <use xlink:href="#PingFangHK-Regular-72" transform="translate(58.599991 0)"/>
       <use xlink:href="#PingFangHK-Regular-6f" transform="translate(95.099976 0)"/>
       <use xlink:href="#PingFangHK-Regular-64" transform="translate(153.699966 0)"/>
       <use xlink:href="#PingFangHK-Regular-75" transform="translate(212.299957 0)"/>
       <use xlink:href="#PingFangHK-Regular-63" transform="translate(268.299942 0)"/>
       <use xlink:href="#PingFangHK-Regular-74" transform="translate(322.999939 0)"/>
       <use xlink:href="#PingFangHK-Regular-73" transform="translate(358.499924 0)"/>
      </g>
     </g>
    </g>
    <g id="xtick_9">
     <g id="line2d_9">
      <g>
       <use xlink:href="#m9afc782356" x="305.724183" y="260.791809" style="stroke: #000000; stroke-width: 0.8"/>
      </g>
     </g>
     <g id="text_9">
      <!-- youtube -->
      <g transform="translate(278.17685 299.086808) rotate(-45) scale(0.1 -0.1)">
       <defs>
        <path id="PingFangHK-Regular-79" d="M 32 3309 
L 1344 77 
L 774 -1267 
L 1331 -1267 
L 3142 3309 
L 2579 3309 
L 1600 698 
L 589 3309 
L 32 3309 
z
" transform="scale(0.015625)"/>
       </defs>
       <use xlink:href="#PingFangHK-Regular-79"/>
       <use xlink:href="#PingFangHK-Regular-6f" transform="translate(49.599991 0)"/>
       <use xlink:href="#PingFangHK-Regular-75" transform="translate(108.199982 0)"/>
       <use xlink:href="#PingFangHK-Regular-74" transform="translate(164.199966 0)"/>
       <use xlink:href="#PingFangHK-Regular-75" transform="translate(199.699951 0)"/>
       <use xlink:href="#PingFangHK-Regular-62" transform="translate(255.699936 0)"/>
       <use xlink:href="#PingFangHK-Regular-65" transform="translate(314.299927 0)"/>
      </g>
     </g>
    </g>
    <g id="xtick_10">
     <g id="line2d_10">
      <g>
       <use xlink:href="#m9afc782356" x="334.350337" y="260.791809" style="stroke: #000000; stroke-width: 0.8"/>
      </g>
     </g>
     <g id="text_10">
      <!-- amazon_cogdl -->
      <g transform="translate(285.828449 319.961926) rotate(-45) scale(0.1 -0.1)">
       <defs>
        <path id="PingFangHK-Regular-6d" d="M 1843 3398 
C 1472 3398 1158 3226 909 2867 
L 909 3309 
L 397 3309 
L 397 0 
L 909 0 
L 909 2016 
C 909 2278 986 2502 1139 2682 
C 1293 2874 1485 2963 1722 2963 
C 2227 2963 2483 2675 2483 2086 
L 2483 0 
L 2995 0 
L 2995 2074 
C 2995 2342 3066 2554 3219 2720 
C 3360 2886 3546 2963 3763 2963 
C 4045 2963 4250 2893 4378 2739 
C 4499 2598 4563 2381 4563 2086 
L 4563 0 
L 5075 0 
L 5075 2170 
C 5075 2547 4966 2848 4762 3072 
C 4544 3290 4269 3398 3923 3398 
C 3693 3398 3501 3347 3341 3245 
C 3162 3149 3008 2989 2880 2771 
C 2694 3194 2349 3398 1843 3398 
z
" transform="scale(0.015625)"/>
        <path id="PingFangHK-Regular-7a" d="M 224 3309 
L 224 2880 
L 2182 2880 
L 160 371 
L 160 0 
L 2957 0 
L 2957 429 
L 826 429 
L 2854 2950 
L 2854 3309 
L 224 3309 
z
" transform="scale(0.015625)"/>
        <path id="PingFangHK-Regular-5f" d="M 0 -467 
L 0 -896 
L 3200 -896 
L 3200 -467 
L 0 -467 
z
" transform="scale(0.015625)"/>
       </defs>
       <use xlink:href="#PingFangHK-Regular-61"/>
       <use xlink:href="#PingFangHK-Regular-6d" transform="translate(55.899994 0)"/>
       <use xlink:href="#PingFangHK-Regular-61" transform="translate(141.399979 0)"/>
       <use xlink:href="#PingFangHK-Regular-7a" transform="translate(197.299973 0)"/>
       <use xlink:href="#PingFangHK-Regular-6f" transform="translate(245.999969 0)"/>
       <use xlink:href="#PingFangHK-Regular-6e" transform="translate(304.59996 0)"/>
       <use xlink:href="#PingFangHK-Regular-5f" transform="translate(360.499954 0)"/>
       <use xlink:href="#PingFangHK-Regular-63" transform="translate(410.499939 0)"/>
       <use xlink:href="#PingFangHK-Regular-6f" transform="translate(465.199936 0)"/>
       <use xlink:href="#PingFangHK-Regular-67" transform="translate(523.799927 0)"/>
       <use xlink:href="#PingFangHK-Regular-64" transform="translate(582.899918 0)"/>
       <use xlink:href="#PingFangHK-Regular-6c" transform="translate(641.499908 0)"/>
      </g>
     </g>
    </g>
    <g id="xtick_11">
     <g id="line2d_11">
      <g>
       <use xlink:href="#m9afc782356" x="362.976491" y="260.791809" style="stroke: #000000; stroke-width: 0.8"/>
      </g>
     </g>
     <g id="text_11">
      <!-- yelp -->
      <g transform="translate(348.340486 286.17548) rotate(-45) scale(0.1 -0.1)">
       <use xlink:href="#PingFangHK-Regular-79"/>
       <use xlink:href="#PingFangHK-Regular-65" transform="translate(49.599991 0)"/>
       <use xlink:href="#PingFangHK-Regular-6c" transform="translate(105.099976 0)"/>
       <use xlink:href="#PingFangHK-Regular-70" transform="translate(128.59996 0)"/>
      </g>
     </g>
    </g>
    <g id="xtick_12">
     <g id="line2d_12">
      <g>
       <use xlink:href="#m9afc782356" x="391.602646" y="260.791809" style="stroke: #000000; stroke-width: 0.8"/>
      </g>
     </g>
     <g id="text_12">
      <!-- wikikg2 -->
      <g transform="translate(365.241926 297.800757) rotate(-45) scale(0.1 -0.1)">
       <defs>
        <path id="PingFangHK-Regular-77" d="M 32 3309 
L 1158 0 
L 1638 0 
L 2419 2662 
L 3187 0 
L 3674 0 
L 4800 3309 
L 4237 3309 
L 3424 627 
L 2656 3309 
L 2176 3309 
L 1408 627 
L 595 3309 
L 32 3309 
z
" transform="scale(0.015625)"/>
        <path id="PingFangHK-Regular-6b" d="M 397 4659 
L 397 0 
L 909 0 
L 909 1171 
L 1434 1645 
L 2726 0 
L 3386 0 
L 1786 1978 
L 3245 3309 
L 2566 3309 
L 909 1773 
L 909 4659 
L 397 4659 
z
" transform="scale(0.015625)"/>
        <path id="PingFangHK-Regular-32" d="M 1984 4659 
C 1523 4659 1146 4506 864 4198 
C 582 3898 435 3488 435 2976 
L 960 2976 
C 966 3379 1062 3686 1242 3891 
C 1408 4109 1651 4211 1965 4211 
C 2259 4211 2496 4134 2662 3981 
C 2829 3827 2912 3616 2912 3334 
C 2912 3040 2790 2765 2560 2515 
C 2438 2387 2202 2202 1843 1946 
C 1357 1613 1030 1338 851 1133 
C 544 794 397 416 397 0 
L 3443 0 
L 3443 467 
L 1043 467 
C 1126 774 1459 1126 2042 1517 
C 2515 1837 2829 2086 2989 2253 
C 3283 2573 3437 2931 3437 3328 
C 3437 3725 3296 4051 3027 4294 
C 2752 4538 2406 4659 1984 4659 
z
" transform="scale(0.015625)"/>
       </defs>
       <use xlink:href="#PingFangHK-Regular-77"/>
       <use xlink:href="#PingFangHK-Regular-69" transform="translate(75.499985 0)"/>
       <use xlink:href="#PingFangHK-Regular-6b" transform="translate(101.099976 0)"/>
       <use xlink:href="#PingFangHK-Regular-69" transform="translate(153.999969 0)"/>
       <use xlink:href="#PingFangHK-Regular-6b" transform="translate(179.59996 0)"/>
       <use xlink:href="#PingFangHK-Regular-67" transform="translate(232.499954 0)"/>
       <use xlink:href="#PingFangHK-Regular-32" transform="translate(291.599945 0)"/>
      </g>
     </g>
    </g>
    <g id="xtick_13">
     <g id="line2d_13">
      <g>
       <use xlink:href="#m9afc782356" x="420.2288" y="260.791809" style="stroke: #000000; stroke-width: 0.8"/>
      </g>
     </g>
     <g id="text_13">
      <!-- am -->
      <g transform="translate(408.830017 282.938257) rotate(-45) scale(0.1 -0.1)">
       <use xlink:href="#PingFangHK-Regular-61"/>
       <use xlink:href="#PingFangHK-Regular-6d" transform="translate(55.899994 0)"/>
      </g>
     </g>
    </g>
    <g id="text_14">
     <!-- 数据集 -->
     <g transform="translate(233.471875 332.740901) scale(0.1 -0.1)">
      <defs>
       <path id="PingFangHK-Regular-6570" d="M 4166 3808 
L 5190 3808 
C 5165 2906 5018 2125 4742 1466 
C 4499 1901 4307 2381 4154 2893 
L 3795 2688 
C 3974 2074 4211 1510 4512 998 
C 4218 486 3827 64 3341 -269 
L 3584 -659 
C 4058 -314 4448 102 4762 602 
C 5069 141 5440 -275 5869 -653 
L 6163 -307 
C 5715 83 5325 531 4998 1037 
C 5370 1805 5574 2726 5606 3808 
L 6074 3808 
L 6074 4250 
L 4275 4250 
C 4339 4531 4397 4838 4448 5165 
L 4006 5242 
C 3859 4102 3578 3194 3155 2528 
L 3437 2176 
C 3738 2611 3981 3155 4166 3808 
z
M 1504 2278 
C 1453 2144 1402 2003 1338 1850 
L 403 1850 
L 403 1446 
L 1152 1446 
C 1024 1203 883 947 717 678 
C 1043 550 1350 429 1638 301 
C 1261 83 800 -96 256 -237 
L 474 -621 
C 1126 -442 1664 -198 2093 96 
C 2470 -83 2803 -256 3085 -429 
L 3328 -70 
C 3040 90 2746 237 2445 378 
C 2778 685 3014 1050 3155 1472 
L 3155 1850 
L 1792 1850 
C 1843 1978 1888 2099 1933 2227 
L 1504 2278 
z
M 2022 563 
C 1779 672 1530 768 1274 858 
C 1395 1043 1510 1242 1613 1446 
L 2733 1446 
C 2579 1114 2342 819 2022 563 
z
M 941 5146 
L 570 5024 
C 723 4787 870 4518 1005 4211 
L 1338 4358 
C 1222 4640 1094 4902 941 5146 
z
M 2886 5171 
C 2765 4909 2605 4640 2413 4371 
L 2739 4205 
C 2938 4467 3104 4736 3232 5011 
L 2886 5171 
z
M 429 4000 
L 429 3597 
L 1421 3597 
C 1203 3238 819 2918 269 2637 
L 506 2259 
C 1056 2592 1446 2982 1690 3430 
L 1690 2362 
L 2112 2362 
L 2112 3142 
C 2330 2982 2592 2765 2893 2490 
L 3130 2848 
C 2790 3085 2451 3296 2112 3482 
L 2112 3597 
L 3270 3597 
L 3270 4000 
L 2112 4000 
L 2112 5222 
L 1690 5222 
L 1690 4000 
L 429 4000 
z
" transform="scale(0.015625)"/>
       <path id="PingFangHK-Regular-636e" d="M 1050 -582 
C 1408 -582 1587 -390 1587 -19 
L 1587 1850 
C 1786 1939 1984 2029 2182 2131 
L 2182 2586 
C 1990 2483 1792 2387 1587 2298 
L 1587 3558 
L 2202 3558 
L 2202 4000 
L 1587 4000 
L 1587 5210 
L 1139 5210 
L 1139 4000 
L 371 4000 
L 371 3558 
L 1139 3558 
L 1139 2112 
C 858 2010 563 1920 269 1850 
L 384 1402 
C 634 1478 883 1568 1139 1664 
L 1139 96 
C 1139 -83 1056 -179 896 -179 
C 742 -179 576 -166 410 -147 
L 506 -582 
L 1050 -582 
z
M 2963 2246 
L 4269 2246 
L 4269 1459 
L 3200 1459 
L 3200 -640 
L 3629 -640 
L 3629 -326 
L 5363 -326 
L 5363 -640 
L 5792 -640 
L 5792 1459 
L 4717 1459 
L 4717 2246 
L 6086 2246 
L 6086 2662 
L 4717 2662 
L 4717 3418 
L 5920 3418 
L 5920 4973 
L 2547 4973 
L 2547 2970 
C 2541 1626 2310 525 1856 -320 
L 2214 -640 
C 2637 192 2886 1152 2963 2246 
z
M 4269 3418 
L 4269 2662 
L 2989 2662 
C 2989 2765 2995 2867 2995 2970 
L 2995 3418 
L 4269 3418 
z
M 3629 83 
L 3629 1050 
L 5363 1050 
L 5363 83 
L 3629 83 
z
M 5472 4544 
L 5472 3834 
L 2995 3834 
L 2995 4544 
L 5472 4544 
z
" transform="scale(0.015625)"/>
       <path id="PingFangHK-Regular-96c6" d="M 2413 915 
C 2042 538 1363 198 378 -102 
L 621 -499 
C 1715 -102 2464 371 2867 915 
L 2989 915 
L 2989 -646 
L 3450 -646 
L 3450 915 
L 3571 915 
C 4019 346 4768 -115 5830 -474 
L 6029 -64 
C 5126 179 4454 506 4019 915 
L 5958 915 
L 5958 1331 
L 3450 1331 
L 3450 1664 
L 2989 1664 
L 2989 1331 
L 442 1331 
L 442 915 
L 2413 915 
z
M 1069 3635 
L 1069 1837 
L 5773 1837 
L 5773 2227 
L 3616 2227 
L 3616 2682 
L 5414 2682 
L 5414 3040 
L 3616 3040 
L 3616 3462 
L 5414 3462 
L 5414 3821 
L 3616 3821 
L 3616 4256 
L 5651 4256 
L 5651 4640 
L 3584 4640 
C 3501 4870 3418 5082 3328 5267 
L 2854 5190 
C 2957 5024 3046 4838 3136 4640 
L 1754 4640 
C 1830 4800 1907 4966 1971 5139 
L 1542 5248 
C 1261 4557 838 3955 269 3443 
L 531 3085 
C 723 3264 902 3443 1069 3635 
z
M 3162 2227 
L 1498 2227 
L 1498 2682 
L 3162 2682 
L 3162 2227 
z
M 3162 3040 
L 1498 3040 
L 1498 3462 
L 3162 3462 
L 3162 3040 
z
M 3162 3821 
L 1498 3821 
L 1498 4205 
L 1530 4256 
L 3162 4256 
L 3162 3821 
z
" transform="scale(0.015625)"/>
      </defs>
      <use xlink:href="#PingFangHK-Regular-6570"/>
      <use xlink:href="#PingFangHK-Regular-636e" transform="translate(99.999985 0)"/>
      <use xlink:href="#PingFangHK-Regular-96c6" transform="translate(199.999969 0)"/>
     </g>
    </g>
   </g>
   <g id="matplotlib.axis_2">
    <g id="ytick_1">
     <g id="line2d_14">
      <path d="M 46.94375 260.791809 
L 450 260.791809 
" clip-path="url(#p4c69c58911)" style="fill: none; stroke: #b0b0b0; stroke-opacity: 0.3; stroke-width: 0.8; stroke-linecap: square"/>
     </g>
     <g id="line2d_15">
      <defs>
       <path id="mb400fde296" d="M 0 0 
L -3.5 0 
" style="stroke: #000000; stroke-width: 0.8"/>
      </defs>
      <g>
       <use xlink:href="#mb400fde296" x="46.94375" y="260.791809" style="stroke: #000000; stroke-width: 0.8"/>
      </g>
     </g>
     <g id="text_15">
      <!-- 0.0 -->
      <g transform="translate(25.303125 264.431652) scale(0.1 -0.1)">
       <defs>
        <path id="PingFangHK-Regular-30" d="M 1920 4659 
C 1370 4659 960 4422 685 3936 
C 442 3526 320 2976 320 2285 
C 320 1594 442 1043 685 634 
C 960 154 1370 -90 1920 -90 
C 2464 -90 2874 154 3155 634 
C 3398 1043 3520 1594 3520 2285 
C 3520 2976 3398 3526 3155 3936 
C 2874 4422 2464 4659 1920 4659 
z
M 1920 4211 
C 2330 4211 2624 3994 2803 3552 
C 2931 3245 3002 2822 3002 2285 
C 3002 1754 2931 1331 2803 1018 
C 2624 582 2330 358 1920 358 
C 1510 358 1216 582 1037 1018 
C 909 1331 845 1754 845 2285 
C 845 2822 909 3245 1037 3552 
C 1216 3994 1510 4211 1920 4211 
z
" transform="scale(0.015625)"/>
       </defs>
       <use xlink:href="#PingFangHK-Regular-30"/>
       <use xlink:href="#PingFangHK-Regular-2e" transform="translate(59.999985 0)"/>
       <use xlink:href="#PingFangHK-Regular-30" transform="translate(86.399979 0)"/>
      </g>
     </g>
    </g>
    <g id="ytick_2">
     <g id="line2d_16">
      <path d="M 46.94375 221.323014 
L 450 221.323014 
" clip-path="url(#p4c69c58911)" style="fill: none; stroke: #b0b0b0; stroke-opacity: 0.3; stroke-width: 0.8; stroke-linecap: square"/>
     </g>
     <g id="line2d_17">
      <g>
       <use xlink:href="#mb400fde296" x="46.94375" y="221.323014" style="stroke: #000000; stroke-width: 0.8"/>
      </g>
     </g>
     <g id="text_16">
      <!-- 0.5 -->
      <g transform="translate(25.303125 224.962858) scale(0.1 -0.1)">
       <defs>
        <path id="PingFangHK-Regular-35" d="M 672 4570 
L 429 2048 
L 928 2048 
C 1018 2227 1158 2368 1338 2458 
C 1510 2554 1702 2598 1920 2598 
C 2253 2598 2515 2502 2701 2298 
C 2893 2099 2995 1818 2995 1453 
C 2995 1133 2886 870 2682 666 
C 2470 461 2208 358 1888 358 
C 1606 358 1370 429 1190 563 
C 986 717 870 941 845 1229 
L 326 1229 
C 358 813 531 480 851 237 
C 1133 19 1478 -90 1882 -90 
C 2330 -90 2714 51 3021 326 
C 3347 621 3514 998 3514 1459 
C 3514 1952 3373 2336 3104 2618 
C 2835 2893 2483 3027 2048 3027 
C 1837 3027 1645 2995 1466 2918 
C 1267 2842 1101 2726 973 2573 
L 947 2573 
L 1101 4102 
L 3328 4102 
L 3328 4570 
L 672 4570 
z
" transform="scale(0.015625)"/>
       </defs>
       <use xlink:href="#PingFangHK-Regular-30"/>
       <use xlink:href="#PingFangHK-Regular-2e" transform="translate(59.999985 0)"/>
       <use xlink:href="#PingFangHK-Regular-35" transform="translate(86.399979 0)"/>
      </g>
     </g>
    </g>
    <g id="ytick_3">
     <g id="line2d_18">
      <path d="M 46.94375 181.854219 
L 450 181.854219 
" clip-path="url(#p4c69c58911)" style="fill: none; stroke: #b0b0b0; stroke-opacity: 0.3; stroke-width: 0.8; stroke-linecap: square"/>
     </g>
     <g id="line2d_19">
      <g>
       <use xlink:href="#mb400fde296" x="46.94375" y="181.854219" style="stroke: #000000; stroke-width: 0.8"/>
      </g>
     </g>
     <g id="text_17">
      <!-- 1.0 -->
      <g transform="translate(27.29375 185.494063) scale(0.1 -0.1)">
       <defs>
        <path id="PingFangHK-Regular-31" d="M 1472 4570 
C 1318 4397 1139 4243 922 4102 
C 704 3974 486 3885 282 3827 
L 282 3302 
C 710 3430 1069 3635 1357 3930 
L 1357 0 
L 1882 0 
L 1882 4570 
L 1472 4570 
z
" transform="scale(0.015625)"/>
       </defs>
       <use xlink:href="#PingFangHK-Regular-31"/>
       <use xlink:href="#PingFangHK-Regular-2e" transform="translate(40.099991 0)"/>
       <use xlink:href="#PingFangHK-Regular-30" transform="translate(66.499985 0)"/>
      </g>
     </g>
    </g>
    <g id="ytick_4">
     <g id="line2d_20">
      <path d="M 46.94375 142.385424 
L 450 142.385424 
" clip-path="url(#p4c69c58911)" style="fill: none; stroke: #b0b0b0; stroke-opacity: 0.3; stroke-width: 0.8; stroke-linecap: square"/>
     </g>
     <g id="line2d_21">
      <g>
       <use xlink:href="#mb400fde296" x="46.94375" y="142.385424" style="stroke: #000000; stroke-width: 0.8"/>
      </g>
     </g>
     <g id="text_18">
      <!-- 1.5 -->
      <g transform="translate(27.29375 146.025268) scale(0.1 -0.1)">
       <use xlink:href="#PingFangHK-Regular-31"/>
       <use xlink:href="#PingFangHK-Regular-2e" transform="translate(40.099991 0)"/>
       <use xlink:href="#PingFangHK-Regular-35" transform="translate(66.499985 0)"/>
      </g>
     </g>
    </g>
    <g id="ytick_5">
     <g id="line2d_22">
      <path d="M 46.94375 102.91663 
L 450 102.91663 
" clip-path="url(#p4c69c58911)" style="fill: none; stroke: #b0b0b0; stroke-opacity: 0.3; stroke-width: 0.8; stroke-linecap: square"/>
     </g>
     <g id="line2d_23">
      <g>
       <use xlink:href="#mb400fde296" x="46.94375" y="102.91663" style="stroke: #000000; stroke-width: 0.8"/>
      </g>
     </g>
     <g id="text_19">
      <!-- 2.0 -->
      <g transform="translate(25.303125 106.556473) scale(0.1 -0.1)">
       <use xlink:href="#PingFangHK-Regular-32"/>
       <use xlink:href="#PingFangHK-Regular-2e" transform="translate(59.999985 0)"/>
       <use xlink:href="#PingFangHK-Regular-30" transform="translate(86.399979 0)"/>
      </g>
     </g>
    </g>
    <g id="ytick_6">
     <g id="line2d_24">
      <path d="M 46.94375 63.447835 
L 450 63.447835 
" clip-path="url(#p4c69c58911)" style="fill: none; stroke: #b0b0b0; stroke-opacity: 0.3; stroke-width: 0.8; stroke-linecap: square"/>
     </g>
     <g id="line2d_25">
      <g>
       <use xlink:href="#mb400fde296" x="46.94375" y="63.447835" style="stroke: #000000; stroke-width: 0.8"/>
      </g>
     </g>
     <g id="text_20">
      <!-- 2.5 -->
      <g transform="translate(25.303125 67.087679) scale(0.1 -0.1)">
       <use xlink:href="#PingFangHK-Regular-32"/>
       <use xlink:href="#PingFangHK-Regular-2e" transform="translate(59.999985 0)"/>
       <use xlink:href="#PingFangHK-Regular-35" transform="translate(86.399979 0)"/>
      </g>
     </g>
    </g>
    <g id="ytick_7">
     <g id="line2d_26">
      <path d="M 46.94375 23.97904 
L 450 23.97904 
" clip-path="url(#p4c69c58911)" style="fill: none; stroke: #b0b0b0; stroke-opacity: 0.3; stroke-width: 0.8; stroke-linecap: square"/>
     </g>
     <g id="line2d_27">
      <g>
       <use xlink:href="#mb400fde296" x="46.94375" y="23.97904" style="stroke: #000000; stroke-width: 0.8"/>
      </g>
     </g>
     <g id="text_21">
      <!-- 3.0 -->
      <g transform="translate(25.303125 27.618884) scale(0.1 -0.1)">
       <defs>
        <path id="PingFangHK-Regular-33" d="M 1965 4659 
C 1530 4659 1178 4538 909 4288 
C 627 4038 461 3693 422 3251 
L 941 3251 
C 973 3558 1075 3795 1254 3962 
C 1427 4128 1664 4205 1971 4205 
C 2266 4205 2502 4134 2669 3981 
C 2822 3840 2906 3642 2906 3386 
C 2906 3130 2822 2931 2662 2790 
C 2502 2656 2272 2586 1965 2586 
L 1613 2586 
L 1613 2176 
L 1984 2176 
C 2304 2176 2547 2106 2726 1952 
C 2906 1798 2995 1587 2995 1312 
C 2995 1043 2899 819 2720 640 
C 2522 454 2259 358 1933 358 
C 1645 358 1408 442 1216 595 
C 992 781 870 1056 858 1414 
L 326 1414 
C 365 902 544 512 870 243 
C 1146 26 1498 -90 1933 -90 
C 2406 -90 2790 45 3085 314 
C 3373 576 3520 915 3520 1331 
C 3520 1600 3443 1824 3290 2003 
C 3149 2182 2944 2310 2675 2394 
C 3174 2560 3424 2906 3424 3418 
C 3424 3802 3290 4102 3027 4326 
C 2758 4550 2400 4659 1965 4659 
z
" transform="scale(0.015625)"/>
       </defs>
       <use xlink:href="#PingFangHK-Regular-33"/>
       <use xlink:href="#PingFangHK-Regular-2e" transform="translate(59.999985 0)"/>
       <use xlink:href="#PingFangHK-Regular-30" transform="translate(86.399979 0)"/>
      </g>
     </g>
    </g>
    <g id="text_22">
     <!-- 相对cuSparse加速比 -->
     <g transform="translate(19.323438 182.341217) rotate(-90) scale(0.1 -0.1)">
      <defs>
       <path id="PingFangHK-Regular-76f8" d="M 5837 4851 
L 2848 4851 
L 2848 -646 
L 3290 -646 
L 3290 -243 
L 5389 -243 
L 5389 -640 
L 5837 -640 
L 5837 4851 
z
M 3290 192 
L 3290 1325 
L 5389 1325 
L 5389 192 
L 3290 192 
z
M 3290 1754 
L 3290 2886 
L 5389 2886 
L 5389 1754 
L 3290 1754 
z
M 3290 3315 
L 3290 4416 
L 5389 4416 
L 5389 3315 
L 3290 3315 
z
M 1722 2707 
C 1901 2470 2112 2163 2355 1792 
L 2605 2163 
C 2310 2541 2016 2886 1722 3194 
L 1722 3533 
L 2547 3533 
L 2547 3974 
L 1722 3974 
L 1722 5222 
L 1267 5222 
L 1267 3974 
L 365 3974 
L 365 3533 
L 1254 3533 
C 1050 2733 717 2022 250 1402 
L 429 947 
C 774 1446 1050 1997 1267 2611 
L 1267 -634 
L 1722 -634 
L 1722 2707 
z
" transform="scale(0.015625)"/>
       <path id="PingFangHK-Regular-5bf9" d="M 3053 3987 
L 3053 3546 
L 4909 3546 
L 4909 141 
C 4909 -83 4787 -198 4550 -198 
C 4256 -198 3942 -186 3610 -166 
L 3706 -621 
L 4710 -621 
C 5146 -621 5370 -403 5370 26 
L 5370 3546 
L 6080 3546 
L 6080 3987 
L 5370 3987 
L 5370 5242 
L 4909 5242 
L 4909 3987 
L 3053 3987 
z
M 762 3571 
L 454 3283 
C 902 2784 1312 2291 1670 1811 
C 1338 1184 870 640 269 179 
L 538 -224 
C 1126 262 1600 813 1952 1427 
C 2182 1101 2394 781 2586 461 
L 2918 794 
C 2694 1152 2445 1517 2176 1875 
C 2509 2586 2688 3379 2720 4250 
L 2720 4589 
L 550 4589 
L 550 4141 
L 2304 4141 
C 2259 3462 2118 2835 1882 2259 
C 1536 2694 1165 3136 762 3571 
z
M 3398 2790 
L 3046 2534 
C 3443 2042 3770 1574 4026 1133 
L 4390 1389 
C 4160 1798 3827 2266 3398 2790 
z
" transform="scale(0.015625)"/>
       <path id="PingFangHK-Regular-53" d="M 1997 4659 
C 1523 4659 1133 4557 832 4352 
C 493 4134 326 3821 326 3424 
C 326 3040 499 2746 851 2541 
C 998 2464 1350 2336 1901 2170 
C 2413 2022 2739 1914 2867 1837 
C 3168 1677 3322 1453 3322 1165 
C 3322 922 3206 730 2976 589 
C 2746 448 2438 378 2067 378 
C 1658 378 1350 467 1139 634 
C 909 819 768 1114 723 1510 
L 205 1510 
C 243 947 442 531 800 256 
C 1107 26 1530 -90 2067 -90 
C 2611 -90 3040 26 3360 250 
C 3680 480 3840 800 3840 1197 
C 3840 1613 3648 1933 3270 2163 
C 3078 2278 2682 2426 2080 2605 
C 1638 2733 1357 2829 1242 2893 
C 979 3034 851 3219 851 3450 
C 851 3712 960 3904 1178 4032 
C 1370 4147 1632 4198 1971 4198 
C 2342 4198 2630 4122 2835 3955 
C 3034 3795 3162 3552 3219 3219 
L 3738 3219 
C 3693 3699 3520 4064 3213 4307 
C 2918 4544 2509 4659 1997 4659 
z
" transform="scale(0.015625)"/>
       <path id="PingFangHK-Regular-52a0" d="M 5830 4275 
L 3738 4275 
L 3738 -544 
L 4179 -544 
L 4179 -115 
L 5382 -115 
L 5382 -544 
L 5830 -544 
L 5830 4275 
z
M 4179 326 
L 4179 3834 
L 5382 3834 
L 5382 326 
L 4179 326 
z
M 1382 5210 
L 1382 3917 
L 358 3917 
L 358 3469 
L 1382 3469 
C 1363 1715 979 435 237 -365 
L 576 -666 
C 1395 205 1818 1581 1843 3469 
L 2694 3469 
C 2682 1754 2656 723 2618 390 
C 2566 26 2374 -160 2048 -160 
C 1894 -160 1715 -147 1510 -134 
L 1626 -557 
C 1856 -570 2016 -582 2112 -582 
C 2675 -582 2989 -314 3053 211 
C 3117 685 3149 1920 3149 3917 
L 1843 3917 
L 1843 5210 
L 1382 5210 
z
" transform="scale(0.015625)"/>
       <path id="PingFangHK-Regular-901f" d="M 2266 4704 
L 2266 4282 
L 3898 4282 
L 3898 3738 
L 2502 3738 
L 2502 2106 
L 3597 2106 
C 3296 1613 2797 1184 2093 826 
L 2381 461 
C 3066 864 3571 1350 3898 1920 
L 3898 147 
L 4326 147 
L 4326 1850 
C 4896 1376 5350 922 5690 493 
L 6003 806 
C 5632 1235 5178 1670 4640 2106 
L 5722 2106 
L 5722 3738 
L 4326 3738 
L 4326 4282 
L 5939 4282 
L 5939 4704 
L 4326 4704 
L 4326 5222 
L 3898 5222 
L 3898 4704 
L 2266 4704 
z
M 5299 2515 
L 4326 2515 
L 4326 3334 
L 5299 3334 
L 5299 2515 
z
M 3898 2515 
L 2931 2515 
L 2931 3334 
L 3898 3334 
L 3898 2515 
z
M 858 5171 
L 557 4877 
C 966 4550 1293 4243 1536 3949 
L 1837 4250 
C 1568 4557 1242 4864 858 5171 
z
M 358 3629 
L 358 3206 
L 1331 3206 
C 1114 2848 838 2490 518 2125 
L 518 1773 
L 1478 1773 
C 1389 1357 1261 986 1107 653 
C 845 582 570 256 275 -326 
L 614 -627 
C 883 -64 1094 218 1235 218 
C 1293 218 1344 198 1395 154 
C 1613 -64 1862 -230 2131 -333 
C 2362 -429 2701 -480 3142 -493 
C 3526 -506 3955 -512 4442 -512 
L 6029 -512 
L 6131 -70 
C 5414 -96 4832 -109 4384 -109 
C 3930 -109 3526 -102 3174 -102 
C 2803 -90 2509 -45 2304 32 
C 2086 128 1882 269 1677 454 
C 1626 506 1574 544 1523 570 
C 1677 915 1805 1344 1907 1856 
L 1907 2163 
L 1062 2163 
C 1357 2522 1613 2886 1837 3264 
L 1837 3629 
L 358 3629 
z
" transform="scale(0.015625)"/>
       <path id="PingFangHK-Regular-6bd4" d="M 1254 2886 
L 2899 2886 
L 2899 3334 
L 1254 3334 
L 1254 5107 
L 794 5107 
L 794 154 
C 794 38 742 -51 640 -115 
L 781 -544 
C 1587 -371 2342 -173 3046 58 
L 2931 486 
C 2374 307 1818 154 1254 26 
L 1254 2886 
z
M 5203 -461 
C 5434 -454 5613 -384 5741 -256 
C 5875 -102 5971 352 6029 1094 
L 5587 1235 
C 5562 582 5491 205 5389 96 
C 5312 19 5210 -19 5088 -19 
L 4128 -19 
C 3936 -19 3846 77 3846 262 
L 3846 2829 
L 5818 2950 
L 5818 3398 
L 3846 3277 
L 3846 5152 
L 3379 5152 
L 3379 179 
C 3379 -243 3584 -461 3994 -461 
L 5203 -461 
z
" transform="scale(0.015625)"/>
      </defs>
      <use xlink:href="#PingFangHK-Regular-76f8"/>
      <use xlink:href="#PingFangHK-Regular-5bf9" transform="translate(99.999985 0)"/>
      <use xlink:href="#PingFangHK-Regular-63" transform="translate(199.999969 0)"/>
      <use xlink:href="#PingFangHK-Regular-75" transform="translate(254.699966 0)"/>
      <use xlink:href="#PingFangHK-Regular-53" transform="translate(310.699951 0)"/>
      <use xlink:href="#PingFangHK-Regular-70" transform="translate(373.899948 0)"/>
      <use xlink:href="#PingFangHK-Regular-61" transform="translate(432.499939 0)"/>
      <use xlink:href="#PingFangHK-Regular-72" transform="translate(488.399933 0)"/>
      <use xlink:href="#PingFangHK-Regular-73" transform="translate(524.899918 0)"/>
      <use xlink:href="#PingFangHK-Regular-65" transform="translate(575.399902 0)"/>
      <use xlink:href="#PingFangHK-Regular-52a0" transform="translate(630.899887 0)"/>
      <use xlink:href="#PingFangHK-Regular-901f" transform="translate(730.899872 0)"/>
      <use xlink:href="#PingFangHK-Regular-6bd4" transform="translate(830.899857 0)"/>
     </g>
    </g>
   </g>
   <g id="line2d_28">
    <path d="M 46.94375 181.854219 
L 450 181.854219 
" clip-path="url(#p4c69c58911)" style="fill: none; stroke-dasharray: 5.55,2.4; stroke-dashoffset: 0; stroke: #ff0000; stroke-opacity: 0.3; stroke-width: 1.5"/>
   </g>
   <g id="patch_16">
    <path d="M 46.94375 260.791809 
L 46.94375 10.8 
" style="fill: none; stroke: #000000; stroke-width: 0.8; stroke-linejoin: miter; stroke-linecap: square"/>
   </g>
   <g id="patch_17">
    <path d="M 450 260.791809 
L 450 10.8 
" style="fill: none; stroke: #000000; stroke-width: 0.8; stroke-linejoin: miter; stroke-linecap: square"/>
   </g>
   <g id="patch_18">
    <path d="M 46.94375 260.791809 
L 450 260.791809 
" style="fill: none; stroke: #000000; stroke-width: 0.8; stroke-linejoin: miter; stroke-linecap: square"/>
   </g>
   <g id="patch_19">
    <path d="M 46.94375 10.8 
L 450 10.8 
" style="fill: none; stroke: #000000; stroke-width: 0.8; stroke-linejoin: miter; stroke-linecap: square"/>
   </g>
   <g id="text_23">
    <!-- 2.20x -->
    <g transform="translate(63.849325 85.120301) scale(0.1 -0.1)">
     <use xlink:href="#PingFangHK-Regular-32"/>
     <use xlink:href="#PingFangHK-Regular-2e" transform="translate(59.999985 0)"/>
     <use xlink:href="#PingFangHK-Regular-32" transform="translate(86.399979 0)"/>
     <use xlink:href="#PingFangHK-Regular-30" transform="translate(146.399963 0)"/>
     <use xlink:href="#PingFangHK-Regular-78" transform="translate(206.399948 0)"/>
    </g>
   </g>
   <g id="text_24">
    <!-- 2.07x -->
    <g transform="translate(92.740323 95.216158) scale(0.1 -0.1)">
     <defs>
      <path id="PingFangHK-Regular-37" d="M 218 4570 
L 218 4090 
L 2682 4090 
L 979 0 
L 1536 0 
L 3219 4141 
L 3219 4570 
L 218 4570 
z
" transform="scale(0.015625)"/>
     </defs>
     <use xlink:href="#PingFangHK-Regular-32"/>
     <use xlink:href="#PingFangHK-Regular-2e" transform="translate(59.999985 0)"/>
     <use xlink:href="#PingFangHK-Regular-30" transform="translate(86.399979 0)"/>
     <use xlink:href="#PingFangHK-Regular-37" transform="translate(146.399963 0)"/>
     <use xlink:href="#PingFangHK-Regular-78" transform="translate(201.09996 0)"/>
    </g>
   </g>
   <g id="text_25">
    <!-- 1.81x -->
    <g transform="translate(123.092259 116.146582) scale(0.1 -0.1)">
     <defs>
      <path id="PingFangHK-Regular-38" d="M 1920 4659 
C 1440 4659 1069 4538 800 4288 
C 550 4064 429 3782 429 3450 
C 429 3206 486 3002 602 2835 
C 723 2656 902 2522 1146 2438 
L 1146 2426 
C 902 2368 704 2234 538 2029 
C 358 1811 269 1555 269 1261 
C 269 858 410 531 691 288 
C 979 38 1389 -90 1920 -90 
C 2445 -90 2854 38 3149 288 
C 3430 531 3571 858 3571 1261 
C 3571 1555 3482 1811 3302 2029 
C 3136 2234 2931 2368 2694 2426 
L 2694 2438 
C 2931 2522 3110 2656 3238 2835 
C 3354 3002 3411 3206 3411 3450 
C 3411 3782 3283 4064 3040 4288 
C 2771 4538 2394 4659 1920 4659 
z
M 1920 4230 
C 2240 4230 2496 4147 2682 3981 
C 2835 3840 2918 3654 2918 3430 
C 2918 3200 2848 3008 2707 2867 
C 2534 2701 2272 2611 1920 2611 
C 1562 2611 1299 2701 1133 2867 
C 992 3008 922 3200 922 3430 
C 922 3654 998 3840 1158 3981 
C 1338 4147 1594 4230 1920 4230 
z
M 1920 2202 
C 2285 2202 2573 2112 2778 1926 
C 2957 1760 3053 1536 3053 1261 
C 3053 992 2957 774 2778 608 
C 2573 429 2291 339 1920 339 
C 1549 339 1261 429 1069 602 
C 877 768 787 992 787 1261 
C 787 1536 877 1760 1069 1926 
C 1267 2112 1549 2202 1920 2202 
z
" transform="scale(0.015625)"/>
     </defs>
     <use xlink:href="#PingFangHK-Regular-31"/>
     <use xlink:href="#PingFangHK-Regular-2e" transform="translate(40.099991 0)"/>
     <use xlink:href="#PingFangHK-Regular-38" transform="translate(66.499985 0)"/>
     <use xlink:href="#PingFangHK-Regular-31" transform="translate(126.499969 0)"/>
     <use xlink:href="#PingFangHK-Regular-78" transform="translate(166.59996 0)"/>
    </g>
   </g>
   <g id="text_26">
    <!-- 2.85x -->
    <g transform="translate(149.727788 34.028944) scale(0.1 -0.1)">
     <use xlink:href="#PingFangHK-Regular-32"/>
     <use xlink:href="#PingFangHK-Regular-2e" transform="translate(59.999985 0)"/>
     <use xlink:href="#PingFangHK-Regular-38" transform="translate(86.399979 0)"/>
     <use xlink:href="#PingFangHK-Regular-35" transform="translate(146.399963 0)"/>
     <use xlink:href="#PingFangHK-Regular-78" transform="translate(206.399948 0)"/>
    </g>
   </g>
   <g id="text_27">
    <!-- 3.02x -->
    <g transform="translate(178.353942 20.724684) scale(0.1 -0.1)">
     <use xlink:href="#PingFangHK-Regular-33"/>
     <use xlink:href="#PingFangHK-Regular-2e" transform="translate(59.999985 0)"/>
     <use xlink:href="#PingFangHK-Regular-30" transform="translate(86.399979 0)"/>
     <use xlink:href="#PingFangHK-Regular-32" transform="translate(146.399963 0)"/>
     <use xlink:href="#PingFangHK-Regular-78" transform="translate(206.399948 0)"/>
    </g>
   </g>
   <g id="text_28">
    <!-- 1.80x -->
    <g transform="translate(207.975408 116.370665) scale(0.1 -0.1)">
     <use xlink:href="#PingFangHK-Regular-31"/>
     <use xlink:href="#PingFangHK-Regular-2e" transform="translate(40.099991 0)"/>
     <use xlink:href="#PingFangHK-Regular-38" transform="translate(66.499985 0)"/>
     <use xlink:href="#PingFangHK-Regular-30" transform="translate(126.499969 0)"/>
     <use xlink:href="#PingFangHK-Regular-78" transform="translate(186.499954 0)"/>
    </g>
   </g>
   <g id="text_29">
    <!-- 2.31x -->
    <g transform="translate(236.601562 76.581171) scale(0.1 -0.1)">
     <use xlink:href="#PingFangHK-Regular-32"/>
     <use xlink:href="#PingFangHK-Regular-2e" transform="translate(59.999985 0)"/>
     <use xlink:href="#PingFangHK-Regular-33" transform="translate(86.399979 0)"/>
     <use xlink:href="#PingFangHK-Regular-31" transform="translate(146.399963 0)"/>
     <use xlink:href="#PingFangHK-Regular-78" transform="translate(186.499954 0)"/>
    </g>
   </g>
   <g id="text_30">
    <!-- 1.75x -->
    <g transform="translate(265.49256 120.747599) scale(0.1 -0.1)">
     <use xlink:href="#PingFangHK-Regular-31"/>
     <use xlink:href="#PingFangHK-Regular-2e" transform="translate(40.099991 0)"/>
     <use xlink:href="#PingFangHK-Regular-37" transform="translate(66.499985 0)"/>
     <use xlink:href="#PingFangHK-Regular-35" transform="translate(121.199982 0)"/>
     <use xlink:href="#PingFangHK-Regular-78" transform="translate(181.199966 0)"/>
    </g>
   </g>
   <g id="text_31">
    <!-- 1.49x -->
    <g transform="translate(293.853871 141.103838) scale(0.1 -0.1)">
     <defs>
      <path id="PingFangHK-Regular-34" d="M 2458 4570 
L 154 1536 
L 154 1037 
L 2451 1037 
L 2451 0 
L 2950 0 
L 2950 1037 
L 3693 1037 
L 3693 1466 
L 2950 1466 
L 2950 4570 
L 2458 4570 
z
M 2432 3885 
L 2451 3885 
L 2451 1466 
L 595 1466 
L 2432 3885 
z
" transform="scale(0.015625)"/>
      <path id="PingFangHK-Regular-39" d="M 1869 4659 
C 1421 4659 1050 4512 762 4211 
C 467 3917 326 3546 326 3091 
C 326 2650 454 2291 717 2016 
C 986 1728 1338 1581 1779 1581 
C 2048 1581 2285 1651 2490 1779 
C 2701 1914 2867 2099 2982 2330 
L 3008 2330 
C 3008 2253 3014 2195 3014 2163 
C 3014 1651 2912 1222 2714 883 
C 2502 531 2221 352 1869 352 
C 1331 352 1018 614 922 1133 
L 403 1133 
C 525 320 1011 -90 1862 -90 
C 2374 -90 2784 154 3091 627 
C 3373 1088 3520 1677 3520 2406 
C 3520 3110 3386 3661 3117 4045 
C 2835 4454 2419 4659 1869 4659 
z
M 1882 4218 
C 2195 4218 2451 4109 2643 3891 
C 2829 3686 2925 3424 2925 3104 
C 2925 2790 2822 2528 2630 2323 
C 2426 2118 2176 2016 1882 2016 
C 1562 2016 1312 2118 1126 2317 
C 934 2509 845 2771 845 3091 
C 845 3424 934 3693 1126 3904 
C 1318 4115 1568 4218 1882 4218 
z
" transform="scale(0.015625)"/>
     </defs>
     <use xlink:href="#PingFangHK-Regular-31"/>
     <use xlink:href="#PingFangHK-Regular-2e" transform="translate(40.099991 0)"/>
     <use xlink:href="#PingFangHK-Regular-34" transform="translate(66.499985 0)"/>
     <use xlink:href="#PingFangHK-Regular-39" transform="translate(126.499969 0)"/>
     <use xlink:href="#PingFangHK-Regular-78" transform="translate(186.499954 0)"/>
    </g>
   </g>
   <g id="text_32">
    <!-- 2.44x -->
    <g transform="translate(321.484712 66.03645) scale(0.1 -0.1)">
     <use xlink:href="#PingFangHK-Regular-32"/>
     <use xlink:href="#PingFangHK-Regular-2e" transform="translate(59.999985 0)"/>
     <use xlink:href="#PingFangHK-Regular-34" transform="translate(86.399979 0)"/>
     <use xlink:href="#PingFangHK-Regular-34" transform="translate(146.399963 0)"/>
     <use xlink:href="#PingFangHK-Regular-78" transform="translate(206.399948 0)"/>
    </g>
   </g>
   <g id="text_33">
    <!-- 1.90x -->
    <g transform="translate(351.106179 108.949279) scale(0.1 -0.1)">
     <use xlink:href="#PingFangHK-Regular-31"/>
     <use xlink:href="#PingFangHK-Regular-2e" transform="translate(40.099991 0)"/>
     <use xlink:href="#PingFangHK-Regular-39" transform="translate(66.499985 0)"/>
     <use xlink:href="#PingFangHK-Regular-30" transform="translate(126.499969 0)"/>
     <use xlink:href="#PingFangHK-Regular-78" transform="translate(186.499954 0)"/>
    </g>
   </g>
   <g id="text_34">
    <!-- 1.59x -->
    <g transform="translate(379.732333 133.681888) scale(0.1 -0.1)">
     <use xlink:href="#PingFangHK-Regular-31"/>
     <use xlink:href="#PingFangHK-Regular-2e" transform="translate(40.099991 0)"/>
     <use xlink:href="#PingFangHK-Regular-35" transform="translate(66.499985 0)"/>
     <use xlink:href="#PingFangHK-Regular-39" transform="translate(126.499969 0)"/>
     <use xlink:href="#PingFangHK-Regular-78" transform="translate(186.499954 0)"/>
    </g>
   </g>
   <g id="text_35">
    <!-- 1.64x -->
    <g transform="translate(408.358487 129.741433) scale(0.1 -0.1)">
     <defs>
      <path id="PingFangHK-Regular-36" d="M 1984 4659 
C 1466 4659 1056 4422 755 3942 
C 467 3488 326 2893 326 2163 
C 326 1466 454 922 723 531 
C 1005 122 1421 -90 1978 -90 
C 2426 -90 2790 64 3085 358 
C 3373 653 3520 1030 3520 1478 
C 3520 1926 3386 2285 3123 2566 
C 2854 2848 2502 2989 2067 2989 
C 1798 2989 1562 2925 1357 2790 
C 1139 2662 979 2477 864 2240 
L 838 2240 
C 832 2323 832 2381 832 2406 
C 832 2925 928 3354 1133 3686 
C 1338 4045 1619 4218 1978 4218 
C 2509 4218 2822 3962 2925 3437 
L 3443 3437 
C 3315 4256 2829 4659 1984 4659 
z
M 1965 2554 
C 2278 2554 2528 2458 2720 2253 
C 2906 2061 3002 1805 3002 1478 
C 3002 1152 2906 883 2714 666 
C 2522 461 2272 352 1965 352 
C 1645 352 1395 461 1203 678 
C 1011 883 922 1146 922 1466 
C 922 1786 1018 2042 1216 2246 
C 1414 2451 1664 2554 1965 2554 
z
" transform="scale(0.015625)"/>
     </defs>
     <use xlink:href="#PingFangHK-Regular-31"/>
     <use xlink:href="#PingFangHK-Regular-2e" transform="translate(40.099991 0)"/>
     <use xlink:href="#PingFangHK-Regular-36" transform="translate(66.499985 0)"/>
     <use xlink:href="#PingFangHK-Regular-34" transform="translate(126.499969 0)"/>
     <use xlink:href="#PingFangHK-Regular-78" transform="translate(186.499954 0)"/>
    </g>
   </g>
  </g>
 </g>
 <defs>
  <clipPath id="p4c69c58911">
   <rect x="46.94375" y="10.8" width="403.05625" height="249.991809"/>
  </clipPath>
 </defs>
</svg>
